<svg id="Layer_1" data-name="Layer 1" xmlns="http://www.w3.org/2000/svg" viewBox="0 0 122.88 103.78"><defs><style>.cls-1{fill-rule:evenodd;}</style></defs><title>paint-brush</title><path class="cls-1" d="M0,103.78c11.7-8.38,30.46.62,37.83-14a16.66,16.66,0,0,0,.62-13.37,10.9,10.9,0,0,0-3.17-4.35,11.88,11.88,0,0,0-2.11-1.35c-9.63-4.78-19.67,1.91-25,10-4.9,7.43-7,16.71-8.18,23.07ZM54.09,43.42a54.31,54.31,0,0,1,15,18.06l50.19-49.16c3.17-3,5-5.53,2.3-10.13A6.5,6.5,0,0,0,117.41,0,7.09,7.09,0,0,0,112.8,1.6L54.09,43.42Zm-16.85,22c2.82,1.52,6.69,5.25,7.61,9.32L65.83,64c-3.78-7.54-8.61-14-15.23-18.58-6.9,9.27-5.5,11.17-13.36,20Z"/></svg>